{"title":"Maximum Risk 1996 1080p.BluRay.5.1.x264 . NVEE","uid":10287656,"size":2342312235,"categoryP":"video","categoryS":"hd___movies","magnet":"?xt=urn:btih:8a9e31582235953c55dcc73af47935973274832a&amp;dn=Maximum+Risk+1996+1080p.BluRay.5.1.x264+.+NVEE&amp;tr=udp%3A%2F%2Ftracker.openbittorrent.com%3A80&amp;tr=udp%3A%2F%2Fopen.demonii.com%3A1337&amp;tr=udp%3A%2F%2Ftracker.coppersurfer.tk%3A6969&amp;tr=udp%3A%2F%2Fexodus.desync.com%3A6969","seeders":12,"leechers":6,"uploader":".NVEE","files":-1,"time":1401811858,"description":"Quick note :\nPlease seed to a Share Ratio of at least 1.1\nIf you require a torrent release I have posted in the past, not seeding,...\nPlease do not hesitate to inform me in any means you find fit to do so.\nTorrent requests also &quot;Always Welcome.&quot;\n\n\nFULL_INFOs\n\n99.99% --- SYNCED GUARANTEED \n\n&quot;Totally scrutinized / analyzed to be a verified torrent.&quot;\n___________________________________________\n\nSource : Blu-ray ~ 1080p\n\n\n\nSpoken Language : English\n\nAudio : 6 ~ Channels Only\n\n\nSubs Info :\n\nx2 ~ .srt English ~ Multi Subs ~ UTF-8 EMBEDDED.\n\nText #1\nID : 3\nFormat : mp4s\nCodec ID : E0\nDuration : 1h 34mn\nBit rate mode : Variable\nBit rate : 2 504 bps\nMaximum bit rate : 65.2 Kbps\nStream size : 1.70 MiB (0%)\nLanguage : Arabic\nEncoded date : UTC 2014-06-01 02:25:51\nTagged date : UTC 2014-06-01 02:25:55\n\nText #2\nID : 4\nFormat : Timed Text\nCodec ID : tx3g\nDuration : 1h 40mn\nBit rate mode : Variable\nBit rate : 28 bps\nStream size : 20.6 KiB (0%)\nLanguage : Danish\nEncoded date : UTC 2014-06-01 02:25:51\nTagged date : UTC 2014-06-01 02:25:55\n\nText #3\nID : 5\nFormat : mp4s\nCodec ID : E0\nDuration : 1h 35mn\nBit rate mode : Variable\nBit rate : 4 048 bps\nMaximum bit rate : 98.9 Kbps\nStream size : 2.78 MiB (0%)\nLanguage : Czech\nEncoded date : UTC 2014-06-01 02:25:51\nTagged date : UTC 2014-06-01 02:25:55\n\nText #4\nID : 6\nFormat : Timed Text\nCodec ID : tx3g\nDuration : 1h 34mn\nBit rate mode : Variable\nBit rate : 29 bps\nStream size : 19.8 KiB (0%)\nLanguage : Finnish\nEncoded date : UTC 2014-06-01 02:25:51\nTagged date : UTC 2014-06-01 02:25:55\n\nText #5\nID : 7\nFormat : Timed Text\nCodec ID : tx3g\nDuration : 1h 34mn\nBit rate mode : Variable\nBit rate : 30 bps\nStream size : 21.0 KiB (0%)\nLanguage : German\nEncoded date : UTC 2014-06-01 02:25:51\nTagged date : UTC 2014-06-01 02:25:55\n\nText #6\nID : 8\nFormat : mp4s\nCodec ID : E0\nDuration : 1h 35mn\nBit rate mode : Variable\nBit rate : 4 688 bps\nMaximum bit rate : 104 Kbps\nStream size : 3.20 MiB (0%)\nLanguage : Greek\nEncoded date : UTC 2014-06-01 02:25:52\nTagged date : UTC 2014-06-01 02:25:55\n\nText #7\nID : 9\nFormat : mp4s\nCodec ID : E0\nDuration : 1h 34mn\nBit rate mode : Variable\nBit rate : 3 552 bps\nMaximum bit rate : 88.0 Kbps\nStream size : 2.41 MiB (0%)\nLanguage : Hebrew\nEncoded date : UTC 2014-06-01 02:25:52\nTagged date : UTC 2014-06-01 02:25:55\n\nText #8\nID : 10\nFormat : mp4s\nCodec ID : E0\nDuration : 1h 34mn\nBit rate mode : Variable\nBit rate : 4 784 bps\nMaximum bit rate : 112 Kbps\nStream size : 3.24 MiB (0%)\nLanguage : Hindi\nEncoded date : UTC 2014-06-01 02:25:52\nTagged date : UTC 2014-06-01 02:25:55\n\nText #9\nID : 11\nFormat : mp4s\nCodec ID : E0\nDuration : 1h 34mn\nBit rate mode : Variable\nBit rate : 4 592 bps\nMaximum bit rate : 100 Kbps\nStream size : 3.11 MiB (0%)\nLanguage : Italian\nEncoded date : UTC 2014-06-01 02:25:53\nTagged date : UTC 2014-06-01 02:25:55\n\nText #10\nID : 12\nFormat : mp4s\nCodec ID : E0\nDuration : 1h 34mn\nBit rate mode : Variable\nBit rate : 3 976 bps\nMaximum bit rate : 98.1 Kbps\nStream size : 2.69 MiB (0%)\nLanguage : Norwegian\nEncoded date : UTC 2014-06-01 02:25:53\nTagged date : UTC 2014-06-01 02:25:55\n\nText #11\nID : 13\nFormat : mp4s\nCodec ID : E0\nDuration : 1h 34mn\nBit rate mode : Variable\nBit rate : 4 304 bps\nMaximum bit rate : 99.9 Kbps\nStream size : 2.92 MiB (0%)\nLanguage : Polish\nEncoded date : UTC 2014-06-01 02:25:53\nTagged date : UTC 2014-06-01 02:25:55\n\nText #12\nID : 14\nFormat : mp4s\nCodec ID : E0\nDuration : 1h 35mn\nBit rate mode : Variable\nBit rate : 4 680 bps\nMaximum bit rate : 101 Kbps\nStream size : 3.20 MiB (0%)\nLanguage : Portuguese\nEncoded date : UTC 2014-06-01 02:25:53\nTagged date : UTC 2014-06-01 02:25:55\n\nText #13\nID : 15\nFormat : Timed Text\nCodec ID : tx3g\nDuration : 1h 34mn\nBit rate mode : Variable\nBit rate : 32 bps\nStream size : 21.9 KiB (0%)\nLanguage : Romanian\nEncoded date : UTC 2014-06-01 02:25:53\nTagged date : UTC 2014-06-01 02:25:55\n\nText #14\nID : 16\nFormat : mp4s\nCodec ID : E0\nDuration : 1h 34mn\nBit rate mode : Variable\nBit rate : 4 264 bps\nMaximum bit rate : 97.1 Kbps\nStream size : 2.89 MiB (0%)\nLanguage : Spanish\nEncoded date : UTC 2014-06-01 02:25:53\nTagged date : UTC 2014-06-01 02:25:55\n\nText #15\nID : 17\nFormat : mp4s\nCodec ID : E0\nDuration : 1h 40mn\nBit rate mode : Variable\nBit rate : 3 720 bps\nMaximum bit rate : 101 Kbps\nStream size : 2.68 MiB (0%)\nLanguage : Swedish\nEncoded date : UTC 2014-06-01 02:25:54\nTagged date : UTC 2014-06-01 02:25:55\n\nText #16\nID : 18\nFormat : mp4s\nCodec ID : E0\nDuration : 1h 34mn\nBit rate mode : Variable\nBit rate : 4 576 bps\nMaximum bit rate : 110 Kbps\nStream size : 3.10 MiB (0%)\nLanguage : Turkish\nEncoded date : UTC 2014-06-01 02:25:54\nTagged date : UTC 2014-06-01 02:25:55\n\nAll .srt UTF-8 &amp; .idx subs can be turned On/Off\n_____________________________________\n---------------------------------------------------------------------------------\n\nGeneral Metadata\n\nComplete name : Maximum Risk 1996.800p.BluRay.5.1.x264 . NVEE.mp4\nFormat : MPEG-4\nFormat profile : Base Media\nCodec ID : isom\nFile size : 2.18 GiB\nDuration : 1h 40mn\nOverall bit rate mode : Variable\nOverall bit rate : 3 105 Kbps\nEncoded date : UTC 2014-06-01 02:13:41\nTagged date : UTC 2014-06-01 02:13:41\n\n\nVideo\n\nID : 1\nFormat : AVC\nFormat/Info : Advanced Video Codec\nFormat profile : &lt;a class=&quot;__cf_email__&quot; href=&quot;/cdn-cgi/l/email-protection&quot; data-cfemail=&quot;5a12333d321a166e746b&quot;&gt;[email&amp;#160;protected]&lt;/a&gt;&lt;script cf-hash='f9e31' type=&quot;text/javascript&quot;&gt;\n/* &lt;![CDATA[ */!function(){try{var t=&quot;currentScript&quot;in document?document.currentScript:function(){for(var t=document.getElementsByTagName(&quot;script&quot;),e=t.length;e--;)if(t[e].getAttribute(&quot;cf-hash&quot;))return t[e]}();if(t&amp;&amp;t.previousSibling){var e,r,n,i,c=t.previousSibling,a=c.getAttribute(&quot;data-cfemail&quot;);if(a){for(e=&quot;&quot;,r=parseInt(a.substr(0,2),16),n=2;a.length-n;n+=2)i=parseInt(a.substr(n,2),16)^r,e+=String.fromCharCode(i);e=document.createTextNode(e),c.parentNode.replaceChild(e,c)}}}catch(u){}}();/* ]]&gt; */&lt;/script&gt;\nFormat settings, CABAC : Yes\nFormat settings, ReFrames : 3 frames\nCodec ID : avc1\nCodec ID/Info : Advanced Video Coding\nDuration : 1h 40mn\nBit rate : 2 482 Kbps\nMaximum bit rate : 7 641 Kbps\nWidth : 1 920 pixels\nHeight : 800 pixels\nDisplay aspect ratio : 2.40:1\nFrame rate mode : Constant\nFrame rate : 23.976 fps\nColor space : YUV\nChroma subsampling : 4:2:0\nBit depth : 8 bits\nScan type : Progressive\nBits/(Pixel*Frame) : 0.067\nStream size : 1.74 GiB (81%)\nWriting library : x264 core 142 r2431 ac76440\nEncoded from Physical Blu-ray / Region B\n\n\nAudio\n\nID : 2\nFormat : AC-3\nFormat/Info : Audio Coding 3\nMode extension : CM (complete main)\nFormat settings, Endianness : Big\nCodec ID : ac-3\nDuration : 1h 40mn\nBit rate mode : Constant\nBit rate : 576 Kbps\nChannel(s) : 6 channels\nChannel positions : Front: L C R, Side: L R, LFE\nSampling rate : 48.0 KHz\nBit depth : 16 bits\nCompression mode : Lossy\nStream size : 414 MiB (19%)\nLanguage : English\nEncoded date : UTC 2014-06-01 02:24:43\nTagged date : UTC 2014-06-01 02:25:55\nEncoded from Physical Blu-ray 6 Channel audio &quot;Always&quot;.\n\n\nEnj0y !\n","torrent":{"xt":"urn:btih:8a9e31582235953c55dcc73af47935973274832a","amp;dn":"Maximum+Risk+1996+1080p.BluRay.5.1.x264+.+NVEE","amp;tr":["udp%3A%2F%2Ftracker.openbittorrent.com%3A80","udp%3A%2F%2Fopen.demonii.com%3A1337","udp%3A%2F%2Ftracker.coppersurfer.tk%3A6969","udp%3A%2F%2Fexodus.desync.com%3A6969"],"infoHash":"8a9e31582235953c55dcc73af47935973274832a","infoHashBuffer":{"type":"Buffer","data":[138,158,49,88,34,53,149,60,85,220,199,58,244,121,53,151,50,116,131,42]},"announce":[],"urlList":[]}}